#!OML:ASF H:\Terrain\Patient Classification 1\Walking\steve\steve.ASF
:FULLY-SPECIFIED
:DEGREES
263
root 9.85263 16.4469 33.0552 4.66826 -11.8262 1.58483
lowerback -2.91978 4.61391 -2.31236
upperback 0.36013 6.26912 -1.80832
thorax 1.95579 3.11264 -0.285638
lowerneck -13.9961 -3.44107 -4.78639
upperneck 13.9504 -4.77557 6.5441
head 6.83605 -1.99755 2.41755
rclavicle 4.96962e-014 1.94809e-014
rhumerus -29.6589 8.76727 -90.192
rradius 67.7455
rwrist -14.3995
rhand -25.4668 -43.7949
rfingers 7.12502
rthumb 1.06073 -73.772
lclavicle 4.96962e-014 1.94809e-014
lhumerus -45.8838 26.5027 61.2907
lradius 6.6185
lwrist -32.894
lhand -14.0679 -6.09315
lfingers 7.12502
lthumb 12.0636 23.5391
rfemur -5.75303 7.03089 16.9596
rtibia 62.9881
rfoot 23.9615 -2.07291
rtoes -10.8544
lfemur -34.6938 4.7844 -24.4942
ltibia 39.2048
lfoot -10.0246 -1.08073
ltoes 9.38077
264
root 9.85722 16.4713 33.2577 4.52085 -12.1069 2.03404
lowerback -2.21025 4.60912 -2.9036
upperback 0.00559638 6.23992 -1.85652
thorax 1.13792 3.1047 -0.096838
lowerneck -14.007 -3.85842 -6.1344
upperneck 14.8831 -5.27762 7.47395
head 7.23217 -2.22243 2.8932
rclavicle 2.31087e-015 1.35174e-014
rhumerus -30.7875 8.47147 -90.5741
rradius 66.3414
rwrist -14.6841
rhand -24.732 -39.8174
rfingers 7.12502
rthumb 1.77043 -69.7898
lclavicle 2.31087e-015 1.35174e-014
lhumerus -45.6755 26.9461 61.1947
lradius 7.2415
lwrist -33.555
lhand -14.4457 -7.23331
lfingers 7.12502
lthumb 11.6993 22.42
rfemur -7.87935 7.16531 16.4897
rtibia 65.4563
rfoot 20.4962 -5.49038
rtoes 0.252642
lfemur -33.8247 5.11275 -25.1295
ltibia 39.3345
lfoot -10.8799 -1.46533
ltoes 8.36684
265
root 9.87798 16.5223 33.4775 4.26523 -11.9065 2.79797
lowerback -1.73045 4.43926 -3.45658
upperback -0.233325 5.99532 -2.08781
thorax 0.597339 2.98899 -0.0906527
lowerneck -13.1867 -3.23523 -4.76449
upperneck 14.5556 -4.52213 6.31362
head 6.86849 -1.90356 2.3762
rclavicle 8.14769e-014 2.38542e-015
rhumerus -31.9069 7.85025 -90.9652
rradius 64.8323
rwrist -14.4467
rhand -24.0569 -39.1677
rfingers 7.12502
rthumb 2.42241 -69.1337
lclavicle 8.14769e-014 2.38542e-015
lhumerus -45.3803 27.4245 61.0738
lradius 8.09603
lwrist -34.157
lhand -14.8883 -8.24207
lfingers 7.12502
lthumb 11.2724 21.435
rfemur -9.56935 6.72467 15.6081
rtibia 67.4248
rfoot 17.8191 -3.81988
rtoes -1.52735
lfemur -32.698 4.74294 -26.113
ltibia 39.2909
lfoot -11.9133 -1.38715
ltoes 8.62237
266
root 9.87334 16.5731 33.7084 3.9226 -11.7645 2.56502
lowerback -1.32791 4.31104 -3.34816
upperback -0.241228 5.80127 -1.9534
thorax 0.365494 2.89545 -0.0504778
lowerneck -13.0634 -3.2428 -5.09645
upperneck 14.9692 -4.5316 6.5397
head 6.99362 -1.90589 2.5066
rclavicle 4.55714e-014 -1.78906e-014
rhumerus -32.5684 7.46468 -91.2865
rradius 63.2187
rwrist -14.5538
rhand -25.2068 -44.4261
rfingers 7.12502
rthumb 1.31181 -74.4019
lclavicle 4.55714e-014 -1.78906e-014
lhumerus -44.7663 28.0906 61.1003
lradius 8.94999
lwrist -34.5934
lhand -15.1813 -9.43188
lfingers 7.12502
lthumb 10.9899 20.2605
rfemur -10.8754 6.70861 16.2012
rtibia 69.0704
rfoot 14.8067 -2.05131
rtoes -5.12302
lfemur -31.2933 4.57381 -25.8751
ltibia 39.1039
lfoot -12.6948 -1.28583
ltoes 3.35921
267
root 9.88159 16.6074 33.9396 3.65884 -11.3596 2.88547
lowerback -1.0804 4.08456 -3.65691
upperback -0.312068 5.48724 -1.93955
thorax 0.131364 2.74184 0.106221
lowerneck -12.7524 -3.30245 -5.62572
upperneck 15.2462 -4.57279 6.75204
head 7.04827 -1.94159 2.66377
rclavicle -8.03835e-015 -9.54166e-015
rhumerus -33.2936 7.0995 -91.4788
rradius 61.6413
rwrist -14.6086
rhand -25.0699 -43.2066
rfingers 7.12502
rthumb 1.44403 -73.1815
lclavicle -8.03835e-015 -9.54166e-015
lhumerus -44.2159 28.7521 61.2082
lradius 9.69871
lwrist -34.8429
lhand -15.1489 -10.5355
lfingers 7.12502
lthumb 11.0211 19.1552
rfemur -12.2503 6.17695 16.0224
rtibia 70.5698
rfoot 11.5388 -0.213695
rtoes -8.94498
lfemur -29.9479 4.08813 -26.3312
ltibia 38.861
lfoot -13.459 -1.47989
ltoes 8.06544
268
root 9.89834 16.6318 34.146 3.61976 -10.8896 3.5405
lowerback -1.96934 3.86088 -3.87756
upperback 0.335325 5.2704 -2.20592
thorax 1.3053 2.60913 0.0531021
lowerneck -12.9395 -3.59319 -6.5094
upperneck 14.8775 -4.90535 7.55127
head 7.02705 -2.08238 3.03284
rclavicle 4.4155e-014 4.77083e-015
rhumerus -32.7448 6.26773 -91.5101
rradius 59.9541
rwrist -14.3128
rhand -24.6658 -41.1726
rfingers 7.12502
rthumb 1.8343 -71.1445
lclavicle 4.4155e-014 4.77083e-015
lhumerus -42.1121 29.8347 62.0157
lradius 10.4182
lwrist -34.8212
lhand -15.2487 -11.6168
lfingers 7.12502
lthumb 10.9249 18.079
rfemur -14.1143 5.46037 15.3399
rtibia 71.9154
rfoot 8.94567 0.60123
rtoes -8.76876
lfemur -28.8561 3.46889 -27.2132
ltibia 38.3701
lfoot -14.1098 -1.63769
ltoes 7.28281
269
root 9.86798 16.6602 34.3425 3.66946 -11.3979 2.84853
lowerback 1.74786 4.04434 -4.12638
upperback -2.48067 5.19394 -1.85552
thorax -3.73292 2.66898 0.119248
lowerneck -10.7439 -2.7123 -4.53405
upperneck 16.8677 -3.94623 5.70386
head 7.13242 -1.68978 2.23201
rclavicle -2.83268e-014 4.77083e-015
rhumerus -37.9616 5.27874 -92.1757
rradius 58.7913
rwrist -13.6989
rhand -24.5012 -41.0959
rfingers 7.12502
rthumb 1.99329 -71.0663
lclavicle -2.83268e-014 4.77083e-015
lhumerus -43.4279 22.932 65.5333
lradius 12.0413
lwrist -27.199
lhand -17.5032 -12.9248
lfingers 7.12502
lthumb 8.74981 16.8738
rfemur -16.3249 6.28737 16.5765
rtibia 73.0403
rfoot 6.87218 0.531366
rtoes -8.53298
lfemur -27.8608 3.77491 -26.4207
ltibia 37.9281
lfoot -14.6246 -1.24193
ltoes 5.54719
270
root 9.91524 16.7095 34.5648 3.44324 -10.2883 3.63597
lowerback 2.11787 3.60834 -4.23965
upperback -2.61383 4.57285 -2.10135
thorax -4.04716 2.36365 -0.066702
lowerneck -10.5733 -2.98598 -5.41676
upperneck 17.4264 -4.27713 6.12943
head 7.33 -1.86757 2.49078
rclavicle 2.21365e-014 -7.15625e-015
rhumerus -38.648 4.61561 -92.0715
rradius 56.845
rwrist -12.9152
rhand -24.0491 -41.2692
rfingers 7.12502
rthumb 2.42995 -71.2351
lclavicle 2.21365e-014 -7.15625e-015
lhumerus -41.9492 21.2393 67.9439
lradius 13.1295
lwrist -23.6983
lhand -19.7515 -14.9818
lfingers 7.12502
lthumb 6.57974 14.896
rfemur -17.5986 4.87942 15.4748
rtibia 73.6982
rfoot 4.85172 2.35888
rtoes -11.3752
lfemur -26.2828 2.65605 -27.6469
ltibia 37.258
lfoot -15.0152 -1.09773
ltoes 3.27382
271
root 9.91206 16.745 34.8107 3.42888 -9.9119 2.88414
lowerback 1.58863 3.46978 -3.47821
upperback -2.43252 4.46214 -1.79711
thorax -3.51836 2.28695 -0.12081
lowerneck -11.2057 -2.67513 -4.57444
upperneck 18.473 -3.85001 5.22467
head 7.72501 -1.67113 2.09551
rclavicle -6.21047e-014 -3.57812e-015
rhumerus -39.0008 3.85603 -91.7763
rradius 54.9204
rwrist -12.3812
rhand -23.9717 -41.1288
rfingers 7.12502
rthumb 2.50468 -71.0939
lclavicle -6.21047e-014 -3.57812e-015
lhumerus -40.1019 19.5816 70.4287
lradius 14.2281
lwrist -20.1482
lhand -18.7667 -15.0718
lfingers 7.12502
lthumb 7.53039 14.7741
rfemur -18.846 4.86678 16.6024
rtibia 74.0334
rfoot 3.2841 3.16158
rtoes -12.5748
lfemur -24.8746 2.29206 -26.9367
ltibia 36.7903
lfoot -15.4139 -1.38514
ltoes 1.29442
272
root 9.91581 16.7506 35.0327 3.38696 -9.43104 3.0999
lowerback 1.21356 3.29747 -3.6062
upperback -2.38309 4.24986 -1.75184
thorax -3.26297 2.18264 0.0338818
lowerneck -10.7314 -2.84932 -5.46282
upperneck 18.3251 -4.06341 5.86488
head 7.63402 -1.78423 2.43743
rclavicle -1.95632e-014 2.5842e-014
rhumerus -39.7198 3.06358 -91.4071
rradius 53.1899
rwrist -12.1296
rhand -23.9876 -41.1727
rfingers 7.12502
rthumb 2.48933 -71.1379
lclavicle -1.95632e-014 2.5842e-014
lhumerus -38.3251 16.9465 73.3527
lradius 15.3486
lwrist -15.8349
lhand -18.7209 -14.7531
lfingers 7.12502
lthumb 7.57451 15.0913
rfemur -20.2006 4.4329 16.5114
rtibia 74.4096
rfoot 1.83949 4.06083
rtoes -12.0319
lfemur -23.5633 1.83536 -27.3558
ltibia 36.1931
lfoot -16.0551 -1.7809
ltoes 0.861438
273
root 9.90716 16.7586 35.2304 3.4811 -9.28692 3.00242
lowerback 1.17062 3.34319 -3.5939
upperback -2.41845 4.31497 -1.6609
thorax -3.28341 2.21667 0.118363
lowerneck -10.5528 -3.05781 -6.10132
upperneck 18.4909 -4.33447 6.292
head 7.69675 -1.92107 2.66126
rclavicle 1.95679e-015 -2.50469e-014
rhumerus -40.3421 1.7818 -90.8498
rradius 51.5026
rwrist -11.9066
rhand -23.5268 -42.0667
rfingers 7.12502
rthumb 2.93432 -72.0263
lclavicle 1.95679e-015 -2.50469e-014
lhumerus -36.6969 13.8775 76.1679
lradius 16.8337
lwrist -11.4952
lhand -20.9942 -15.5363
lfingers 7.12502
lthumb 5.37992 14.3754
rfemur -22.0999 4.47801 16.8904
rtibia 74.8796
rfoot 0.305055 4.61704
rtoes -13.0563
lfemur -22.5271 1.55196 -27.354
ltibia 35.659
lfoot -16.9081 -1.86912
ltoes 1.69798
